<svg width="50" height="50" viewBox="0 0 50 50" fill="none" xmlns="http://www.w3.org/2000/svg">
<circle cx="25.0005" cy="25" r="25" fill="#D4D8E2"/>
<path d="M25.0003 14.0002C18.9253 14.0002 14.0005 18.9252 14.0005 25C14.0005 31.0748 18.9253 36.0002 25.0003 36.0002C31.0753 36.0002 36.0005 31.0748 36.0005 25C36.0005 18.9252 31.0753 14.0002 25.0003 14.0002ZM29.7558 27.0922H25.0923C25.0766 27.0922 25.0619 27.0884 25.0463 27.0878C25.0307 27.0885 25.0161 27.0922 25.0002 27.0922C24.5801 27.0922 24.2395 26.7516 24.2395 26.3314V18.5652C24.2395 18.1451 24.5801 17.8044 25.0002 17.8044C25.4204 17.8044 25.761 18.1451 25.761 18.5652V25.5706H29.7555C30.1757 25.5706 30.5163 25.9113 30.5163 26.3314C30.5163 26.7516 30.176 27.0922 29.7558 27.0922Z" fill="white"/>
</svg>
