<svg width="50" height="50" viewBox="0 0 50 50" fill="none" xmlns="http://www.w3.org/2000/svg">
<circle cx="25.0005" cy="25" r="25" fill="#D4D8E2"/>
<path d="M25.0007 31.9072L13.8892 24.037V28.2345V35.3763C13.8892 36.2732 14.5835 37 15.4403 37H34.5602C35.4171 37 36.1114 36.2732 36.1114 35.3763V28.2345V24.037L25.0007 31.9072Z" fill="white"/>
<path d="M17.1829 24.6189L19.0089 25.8888V15.2621C19.0089 14.498 19.6139 13.8763 20.3575 13.8763H29.6431C30.3867 13.8763 30.9916 14.498 30.9916 15.2621V25.8888L32.8177 24.6189L35.3134 22.8836L36.1114 22.3288L32.8177 20.2535V15.2621C32.8177 13.4603 31.3965 11.9999 29.6431 11.9999H20.3575C18.6041 11.9999 17.1829 13.4603 17.1829 15.2621V20.2535L13.8892 22.3288L14.6867 22.8836L17.1829 24.6189Z" fill="white"/>
<path fill-rule="evenodd" clip-rule="evenodd" d="M22.3423 19.537C21.831 19.537 21.4164 19.1224 21.4164 18.6111L21.4164 17.7449C21.4164 16.7221 22.2455 15.893 23.2683 15.893L26.972 15.893C27.9947 15.893 28.8238 16.7221 28.8238 17.7449L28.8238 18.611C28.8238 19.1224 28.4093 19.537 27.8979 19.537C27.3865 19.537 26.972 19.1224 26.972 18.611L26.972 17.7449L23.2683 17.7449L23.2683 18.6111C23.2683 19.1224 22.8537 19.537 22.3423 19.537Z" fill="white"/>
<path fill-rule="evenodd" clip-rule="evenodd" d="M27.8979 31.0064C28.4093 31.0064 28.8238 31.4209 28.8238 31.9323L28.8238 32.7985C28.8238 33.8212 27.9947 34.6503 26.972 34.6503L23.2683 34.6503C22.2455 34.6503 21.4164 33.8212 21.4164 32.7985L21.4164 31.9323C21.4164 31.4209 21.831 31.0064 22.3423 31.0064C22.8537 31.0064 23.2683 31.4209 23.2683 31.9323L23.2683 32.7985L26.972 32.7985L26.972 31.9323C26.972 31.4209 27.3865 31.0064 27.8979 31.0064Z" fill="white"/>
<path fill-rule="evenodd" clip-rule="evenodd" d="M27.2806 25.2717C27.2806 24.2068 26.371 23.2407 25.1201 23.2407C23.8692 23.2407 22.9596 24.2068 22.9596 25.2717C22.9596 26.3367 23.8692 27.3028 25.1201 27.3028C26.371 27.3028 27.2806 26.3367 27.2806 25.2717ZM29.1324 25.2717C29.1324 23.1273 27.336 21.3888 25.1201 21.3888C22.9041 21.3888 21.1077 23.1273 21.1077 25.2717C21.1077 27.4162 22.9041 29.1547 25.1201 29.1547C27.336 29.1547 29.1324 27.4162 29.1324 25.2717Z" fill="white"/>
</svg>
