<svg width="50" height="50" viewBox="0 0 50 50" fill="none" xmlns="http://www.w3.org/2000/svg">
<circle cx="24.9999" cy="25.0002" r="25" fill="#FAA61A"/>
<path fill-rule="evenodd" clip-rule="evenodd" d="M13.9999 17.0002C12.8953 17.0002 11.9999 17.8956 11.9999 19.0002V32.0002C11.9999 33.1048 12.8953 34.0002 13.9999 34.0002H35.9999C37.1044 34.0002 37.9999 33.1048 37.9999 32.0002V19.0002C37.9999 17.8956 37.1044 17.0002 35.9999 17.0002H13.9999ZM24.9999 23.0002C25.5522 23.0002 25.9999 22.5525 25.9999 22.0002C25.9999 21.4479 25.5522 21.0002 24.9999 21.0002H16.9999C16.4476 21.0002 15.9999 21.4479 15.9999 22.0002C15.9999 22.5525 16.4476 23.0002 16.9999 23.0002H24.9999ZM21.9999 27.0002C22.5522 27.0002 22.9999 26.5525 22.9999 26.0002C22.9999 25.4479 22.5522 25.0002 21.9999 25.0002H16.9999C16.4476 25.0002 15.9999 25.4479 15.9999 26.0002C15.9999 26.5525 16.4476 27.0002 16.9999 27.0002H21.9999ZM29.9999 26.0002C29.9999 26.5525 29.5522 27.0002 28.9999 27.0002H25.9999C25.4476 27.0002 24.9999 26.5525 24.9999 26.0002C24.9999 25.4479 25.4476 25.0002 25.9999 25.0002H28.9999C29.5522 25.0002 29.9999 25.4479 29.9999 26.0002ZM29.9999 23.0002C30.5522 23.0002 30.9999 22.5525 30.9999 22.0002C30.9999 21.4479 30.5522 21.0002 29.9999 21.0002H28.9999C28.4476 21.0002 27.9999 21.4479 27.9999 22.0002C27.9999 22.5525 28.4476 23.0002 28.9999 23.0002H29.9999Z" fill="white"/>
</svg>
